<svg xmlns="http://www.w3.org/2000/svg" width="137" height="36" viewBox="0 0 137 36" fill="none">
  <g clip-path="url(#clip0_6180_26528)">
    <path d="M46.8632 31.2168L48.245 27.0386C48.2576 27.0003 48.2696 26.9577 48.2809 26.9105C48.2923 26.8634 48.3043 26.8143 48.3169 26.7633C48.3396 26.8678 48.3648 26.9596 48.3926 27.0386L49.7668 31.2168H50.4256L52.1178 25.7388H51.5461C51.483 25.7388 51.4294 25.7567 51.3852 25.7924C51.3411 25.828 51.3127 25.8688 51.3001 25.9147L50.1757 29.7221C50.1555 29.7884 50.1391 29.8597 50.1265 29.9362C50.1139 30.0126 50.1 30.0929 50.0848 30.177C50.0495 30.0063 50.0091 29.8546 49.9637 29.7221L48.6955 25.9147C48.6778 25.8637 48.6481 25.8217 48.6065 25.7885C48.5649 25.7554 48.5112 25.7388 48.4456 25.7388H48.2336C48.1705 25.7388 48.1169 25.7573 48.0727 25.7943C48.0285 25.8312 47.9989 25.8714 47.9837 25.9147L46.7079 29.7221C46.6852 29.7884 46.665 29.8616 46.6474 29.9419C46.6297 30.0222 46.612 30.1056 46.5944 30.1923C46.5792 30.1056 46.5635 30.0228 46.5471 29.9438C46.5306 29.8648 46.5123 29.7909 46.4922 29.7221L45.3716 25.9147C45.3564 25.8637 45.3274 25.8217 45.2845 25.7885C45.2416 25.7554 45.1873 25.7388 45.1217 25.7388H44.5122L46.2044 31.2168H46.8632ZM54.6669 31.2703C54.8057 31.2703 54.9458 31.2582 55.0871 31.234C55.2284 31.2098 55.3653 31.1735 55.4978 31.125C55.6303 31.0766 55.7546 31.0148 55.8707 30.9396C55.9868 30.8645 56.0865 30.7759 56.1698 30.674L55.9805 30.4255C55.9502 30.3822 55.9073 30.3605 55.8518 30.3605C55.8089 30.3605 55.7578 30.3802 55.6985 30.4197C55.6392 30.4592 55.5654 30.5019 55.477 30.5478C55.3887 30.5937 55.2833 30.6364 55.1609 30.6759C55.0385 30.7154 54.8928 30.7351 54.7237 30.7351C54.5419 30.7351 54.3779 30.7052 54.2315 30.6453C54.0851 30.5854 53.9589 30.4949 53.8529 30.3739C53.7469 30.2528 53.6636 30.1018 53.6031 29.9209C53.5425 29.7399 53.5097 29.5271 53.5046 29.2825H56.0562C56.1193 29.2825 56.1622 29.2647 56.185 29.229C56.2077 29.1933 56.219 29.1219 56.219 29.0149C56.219 28.7397 56.1793 28.4944 56.0998 28.279C56.0203 28.0637 55.9099 27.8827 55.7685 27.7362C55.6272 27.5897 55.4594 27.4775 55.265 27.3998C55.0707 27.3221 54.8587 27.2832 54.629 27.2832C54.3514 27.2832 54.1015 27.3323 53.8794 27.4304C53.6573 27.5285 53.4693 27.6636 53.3154 27.8356C53.1614 28.0076 53.0434 28.2109 52.9614 28.4453C52.8794 28.6798 52.8383 28.9321 52.8383 29.2022C52.8383 29.5361 52.8838 29.8317 52.9746 30.0891C53.0655 30.3465 53.1923 30.5625 53.3551 30.737C53.5179 30.9116 53.711 31.0441 53.9343 31.1346C54.1577 31.2251 54.4019 31.2703 54.6669 31.2703ZM55.6133 28.8582H53.5274C53.5728 28.5218 53.6889 28.2586 53.8756 28.0688C54.0624 27.8789 54.3186 27.784 54.6442 27.784C54.7981 27.784 54.935 27.8101 55.0549 27.8624C55.1748 27.9146 55.2764 27.9885 55.3597 28.0841C55.4429 28.1796 55.506 28.293 55.5489 28.4243C55.5919 28.5555 55.6133 28.7002 55.6133 28.8582ZM59.3322 31.2703C59.5896 31.2703 59.8212 31.2187 60.0269 31.1155C60.2326 31.0123 60.4067 30.8708 60.5493 30.6912C60.6919 30.5115 60.8011 30.2987 60.8768 30.0528C60.9525 29.8068 60.9903 29.5412 60.9903 29.2557C60.9903 28.9346 60.9563 28.6511 60.8881 28.4052C60.82 28.1593 60.7228 27.9528 60.5966 27.7859C60.4704 27.619 60.3177 27.4935 60.1385 27.4094C59.9594 27.3253 59.7587 27.2832 59.5366 27.2832C59.2716 27.2832 59.0363 27.3399 58.8306 27.4533C58.6249 27.5667 58.4425 27.7165 58.2835 27.9025V25.5859H57.6059V31.2168H58.0412C58.1371 31.2168 58.1952 31.1684 58.2154 31.0715L58.2495 30.7198C58.3782 30.8931 58.529 31.0282 58.7019 31.125C58.8747 31.2219 59.0848 31.2703 59.3322 31.2703ZM59.1808 30.7428C58.999 30.7428 58.8344 30.7084 58.6867 30.6396C58.5391 30.5707 58.4047 30.4522 58.2835 30.284V28.4109C58.4223 28.2249 58.5744 28.0809 58.7397 27.979C58.905 27.877 59.0975 27.826 59.317 27.826C59.471 27.826 59.6085 27.8528 59.7297 27.9063C59.8508 27.9598 59.953 28.0446 60.0363 28.1605C60.1196 28.2765 60.1833 28.4249 60.2275 28.6059C60.2717 28.7868 60.2938 29.0034 60.2938 29.2557C60.2938 29.7323 60.1979 30.0993 60.006 30.3567C59.8142 30.6141 59.5391 30.7428 59.1808 30.7428ZM64.0126 31.2779C64.2625 31.2779 64.4966 31.2404 64.7149 31.1652C64.9332 31.09 65.1244 30.9817 65.2884 30.8402C65.4525 30.6988 65.5818 30.5274 65.6765 30.3261C65.7711 30.1248 65.8184 29.8979 65.8184 29.6457C65.8184 29.3118 65.7295 29.034 65.5516 28.8123C65.3736 28.5906 65.108 28.4326 64.7546 28.3383C64.8985 28.295 65.0285 28.2376 65.1446 28.1663C65.2607 28.0949 65.3597 28.0076 65.4418 27.9044C65.5238 27.8012 65.5869 27.6814 65.6311 27.5451C65.6752 27.4087 65.6973 27.2539 65.6973 27.0806C65.6973 26.8691 65.6582 26.6767 65.5799 26.5034C65.5017 26.3301 65.3925 26.1823 65.2525 26.06C65.1124 25.9376 64.9452 25.8433 64.7509 25.7771C64.5565 25.7108 64.3445 25.6777 64.1149 25.6777C63.8827 25.6777 63.6662 25.7114 63.4656 25.779C63.265 25.8465 63.087 25.9453 62.9318 26.0752C62.7766 26.2052 62.6485 26.3664 62.5476 26.5588C62.4466 26.7512 62.3785 26.9723 62.3431 27.2221L62.6952 27.2832C62.7129 27.2858 62.7286 27.2877 62.7425 27.289C62.7564 27.2902 62.7696 27.2909 62.7823 27.2909C62.8454 27.2909 62.8971 27.2743 62.9375 27.2412C62.9779 27.208 63.0082 27.1545 63.0283 27.0806C63.0586 26.9634 63.1041 26.8544 63.1646 26.7538C63.2252 26.6531 63.3003 26.5665 63.3899 26.4938C63.4795 26.4212 63.5823 26.3645 63.6984 26.3237C63.8145 26.2829 63.9407 26.2626 64.077 26.2626C64.2133 26.2626 64.3401 26.2817 64.4575 26.3199C64.5748 26.3581 64.6764 26.4155 64.7622 26.4919C64.848 26.5684 64.9155 26.6652 64.9648 26.7824C65.014 26.8997 65.0386 27.0373 65.0386 27.1953C65.0386 27.338 65.0152 27.468 64.9685 27.5852C64.9219 27.7024 64.8468 27.8031 64.7433 27.8872C64.6398 27.9713 64.5067 28.0376 64.3439 28.086C64.1811 28.1344 63.9849 28.1599 63.7552 28.1624V28.6556C64.0379 28.6556 64.2694 28.6811 64.4499 28.732C64.6304 28.783 64.7717 28.8531 64.8739 28.9423C64.9761 29.0315 65.0468 29.1372 65.0859 29.2596C65.125 29.3819 65.1446 29.517 65.1446 29.6648C65.1446 29.7845 65.1206 29.9056 65.0727 30.0279C65.0247 30.1502 64.9534 30.2611 64.8588 30.3605C64.7641 30.4599 64.6455 30.5408 64.5029 30.6032C64.3603 30.6657 64.1944 30.6969 64.0051 30.6969C63.8158 30.6969 63.6574 30.6689 63.53 30.6128C63.4025 30.5567 63.2959 30.4879 63.2101 30.4064C63.1243 30.3248 63.0561 30.2375 63.0056 30.1445C62.9552 30.0515 62.9122 29.968 62.8769 29.8941C62.8719 29.8814 62.8668 29.8693 62.8618 29.8578C62.8567 29.8463 62.8517 29.8355 62.8466 29.8253C62.8264 29.7794 62.7968 29.7457 62.7577 29.724C62.7185 29.7024 62.6737 29.6915 62.6233 29.6915C62.5703 29.6915 62.5173 29.703 62.4643 29.7259L62.1765 29.8483C62.2396 30.0521 62.3166 30.2414 62.4075 30.4159C62.4983 30.5905 62.6144 30.7415 62.7558 30.8689C62.8971 30.9963 63.07 31.0964 63.2744 31.169C63.4788 31.2416 63.7249 31.2779 64.0126 31.2779ZM70.9911 31.2779C71.2788 31.2779 71.5356 31.2333 71.7615 31.1441C71.9873 31.055 72.1779 30.9326 72.3331 30.7772C72.4883 30.6217 72.6063 30.4389 72.6871 30.2286C72.7678 30.0184 72.8082 29.7935 72.8082 29.5539C72.8082 29.3271 72.771 29.136 72.6965 28.9805C72.6221 28.825 72.5237 28.6938 72.4012 28.5868C72.2788 28.4797 72.14 28.3912 71.9848 28.3211C71.8296 28.251 71.6706 28.1879 71.5078 28.1319C71.345 28.0758 71.186 28.0216 71.0308 27.9694C70.8756 27.9171 70.7368 27.8553 70.6144 27.784C70.492 27.7126 70.3935 27.6266 70.3191 27.526C70.2446 27.4253 70.2074 27.2985 70.2074 27.1456C70.2074 27.0258 70.2289 26.9143 70.2718 26.8111C70.3147 26.7079 70.3784 26.6181 70.4629 26.5416C70.5475 26.4652 70.6529 26.4046 70.7791 26.36C70.9052 26.3154 71.0504 26.2931 71.2144 26.2931C71.3886 26.2931 71.5368 26.3148 71.6592 26.3581C71.7816 26.4014 71.8864 26.4492 71.9735 26.5015C72.0605 26.5537 72.1325 26.6015 72.1892 26.6448C72.246 26.6882 72.2959 26.7098 72.3388 26.7098C72.3792 26.7098 72.412 26.7003 72.4372 26.6811C72.4625 26.662 72.4864 26.6334 72.5091 26.5951L72.6871 26.2434C72.5003 26.06 72.282 25.9198 72.0321 25.8229C71.7823 25.7261 71.5059 25.6777 71.2031 25.6777C70.933 25.6777 70.6939 25.7197 70.4857 25.8038C70.2774 25.8879 70.1027 26.0001 69.9613 26.1402C69.82 26.2804 69.7121 26.4409 69.6376 26.6219C69.5632 26.8028 69.526 26.9901 69.526 27.1838C69.526 27.4259 69.5632 27.6292 69.6376 27.7935C69.7121 27.9579 69.8099 28.0949 69.931 28.2045C70.0522 28.3141 70.1904 28.4033 70.3456 28.4721C70.5008 28.5409 70.6598 28.6014 70.8226 28.6537C70.9854 28.7059 71.1444 28.7569 71.2996 28.8066C71.4548 28.8563 71.593 28.9168 71.7141 28.9881C71.8353 29.0595 71.9331 29.1481 72.0075 29.2538C72.082 29.3596 72.1192 29.4953 72.1192 29.6609C72.1192 29.8113 72.094 29.9476 72.0435 30.07C71.993 30.1923 71.9205 30.2974 71.8258 30.3853C71.7312 30.4733 71.6157 30.5414 71.4794 30.5899C71.3431 30.6383 71.1879 30.6625 71.0138 30.6625C70.8043 30.6625 70.627 30.6338 70.4819 30.5765C70.3367 30.5191 70.2131 30.4561 70.1109 30.3873C70.0086 30.3184 69.9235 30.2554 69.8553 30.198C69.7872 30.1407 69.7266 30.112 69.6736 30.112C69.6383 30.112 69.6061 30.1216 69.5771 30.1407C69.548 30.1598 69.5234 30.1834 69.5033 30.2114L69.2912 30.5631C69.4957 30.7823 69.7424 30.9562 70.0314 31.0849C70.3203 31.2136 70.6402 31.2779 70.9911 31.2779ZM75.6942 31.2703C75.9744 31.2703 76.2274 31.2238 76.4533 31.1308C76.6791 31.0377 76.871 30.9046 77.0287 30.7313C77.1864 30.558 77.3076 30.349 77.3921 30.1044C77.4767 29.8597 77.519 29.5845 77.519 29.2787C77.519 28.9754 77.4767 28.7008 77.3921 28.4549C77.3076 28.209 77.1864 27.9993 77.0287 27.826C76.871 27.6527 76.6791 27.519 76.4533 27.4247C76.2274 27.3304 75.9744 27.2832 75.6942 27.2832C75.4141 27.2832 75.1611 27.3304 74.9352 27.4247C74.7093 27.519 74.5169 27.6527 74.3579 27.826C74.1988 27.9993 74.0764 28.209 73.9906 28.4549C73.9048 28.7008 73.8619 28.9754 73.8619 29.2787C73.8619 29.5845 73.9048 29.8597 73.9906 30.1044C74.0764 30.349 74.1988 30.558 74.3579 30.7313C74.5169 30.9046 74.7093 31.0377 74.9352 31.1308C75.1611 31.2238 75.4141 31.2703 75.6942 31.2703ZM75.6942 30.7389C75.5024 30.7389 75.3358 30.7058 75.1945 30.6396C75.0532 30.5733 74.9352 30.4784 74.8405 30.3548C74.7459 30.2312 74.6752 30.0789 74.6285 29.8979C74.5818 29.717 74.5585 29.5119 74.5585 29.2825C74.5585 29.0531 74.5818 28.8473 74.6285 28.6651C74.6752 28.4829 74.7459 28.3294 74.8405 28.2045C74.9352 28.0796 75.0532 27.984 75.1945 27.9178C75.3358 27.8515 75.5024 27.8184 75.6942 27.8184C76.0728 27.8184 76.3555 27.9471 76.5422 28.2045C76.729 28.4619 76.8224 28.8212 76.8224 29.2825C76.8224 29.7412 76.729 30.0986 76.5422 30.3548C76.3555 30.6109 76.0728 30.7389 75.6942 30.7389ZM79.6062 31.2168V25.5859H78.9323V31.2168H79.6062ZM82.4922 31.2779C82.7597 31.2779 82.9969 31.2212 83.2039 31.1078C83.4109 30.9944 83.5976 30.8447 83.7642 30.6587L83.8172 31.0753C83.8424 31.1696 83.903 31.2168 83.9989 31.2168H84.4002V27.3444H83.7263V30.1999C83.58 30.3681 83.4197 30.4994 83.2455 30.5937C83.0714 30.688 82.8859 30.7351 82.689 30.7351C82.419 30.7351 82.2171 30.6548 82.0833 30.4943C81.9496 30.3337 81.8827 30.1069 81.8827 29.8138V27.3444H81.2088V29.8138C81.2088 30.033 81.2359 30.2331 81.2902 30.414C81.3445 30.595 81.4259 30.7491 81.5344 30.8766C81.6429 31.004 81.7773 31.1027 81.9376 31.1728C82.0978 31.2429 82.2827 31.2779 82.4922 31.2779ZM87.1764 31.2779C87.3506 31.2779 87.5197 31.2467 87.6837 31.1843C87.8478 31.1219 87.9878 31.0358 88.1039 30.9263L87.9071 30.6013C87.8793 30.558 87.8478 30.5363 87.8124 30.5363C87.7922 30.5363 87.7689 30.5459 87.7424 30.565C87.7159 30.5841 87.6837 30.6051 87.6459 30.6281C87.608 30.651 87.5632 30.672 87.5115 30.6912C87.4597 30.7103 87.3985 30.7198 87.3279 30.7198C87.2042 30.7198 87.1032 30.6803 87.025 30.6013C86.9468 30.5223 86.9076 30.4013 86.9076 30.2382V27.914H88.0055V27.4208H86.9076V26.0867H86.5669C86.524 26.0867 86.4887 26.0988 86.4609 26.123C86.4332 26.1472 86.4168 26.1785 86.4117 26.2167L86.2565 27.4132L85.6281 27.4935V27.7649C85.6281 27.8158 85.6419 27.8534 85.6697 27.8776C85.6975 27.9019 85.7315 27.914 85.7719 27.914H86.2338V30.284C86.2338 30.6051 86.3152 30.8511 86.478 31.0218C86.6407 31.1926 86.8736 31.2779 87.1764 31.2779ZM89.7596 26.6104C89.8252 26.6104 89.887 26.5977 89.9451 26.5722C90.0031 26.5467 90.0542 26.5117 90.0984 26.4671C90.1426 26.4225 90.1779 26.3715 90.2044 26.3142C90.2309 26.2568 90.2442 26.195 90.2442 26.1288C90.2442 26.0625 90.2309 25.9994 90.2044 25.9395C90.1779 25.8796 90.1426 25.8274 90.0984 25.7828C90.0542 25.7382 90.0031 25.7032 89.9451 25.6777C89.887 25.6522 89.8252 25.6395 89.7596 25.6395C89.694 25.6395 89.6328 25.6522 89.576 25.6777C89.5192 25.7032 89.4687 25.7382 89.4245 25.7828C89.3804 25.8274 89.3457 25.8796 89.3204 25.9395C89.2952 25.9994 89.2826 26.0625 89.2826 26.1288C89.2826 26.195 89.2952 26.2568 89.3204 26.3142C89.3457 26.3715 89.3804 26.4225 89.4245 26.4671C89.4687 26.5117 89.5192 26.5467 89.576 26.5722C89.6328 26.5977 89.694 26.6104 89.7596 26.6104ZM90.0927 31.2168V27.3444H89.4189V31.2168H90.0927ZM93.3384 31.2703C93.6185 31.2703 93.8715 31.2238 94.0974 31.1308C94.3233 31.0377 94.5151 30.9046 94.6729 30.7313C94.8306 30.558 94.9517 30.349 95.0363 30.1044C95.1208 29.8597 95.1631 29.5845 95.1631 29.2787C95.1631 28.9754 95.1208 28.7008 95.0363 28.4549C94.9517 28.209 94.8306 27.9993 94.6729 27.826C94.5151 27.6527 94.3233 27.519 94.0974 27.4247C93.8715 27.3304 93.6185 27.2832 93.3384 27.2832C93.0582 27.2832 92.8052 27.3304 92.5793 27.4247C92.3534 27.519 92.161 27.6527 92.002 27.826C91.843 27.9993 91.7206 28.209 91.6348 28.4549C91.549 28.7008 91.5061 28.9754 91.5061 29.2787C91.5061 29.5845 91.549 29.8597 91.6348 30.1044C91.7206 30.349 91.843 30.558 92.002 30.7313C92.161 30.9046 92.3534 31.0377 92.5793 31.1308C92.8052 31.2238 93.0582 31.2703 93.3384 31.2703ZM93.3384 30.7389C93.1466 30.7389 92.98 30.7058 92.8387 30.6396C92.6973 30.5733 92.5793 30.4784 92.4847 30.3548C92.39 30.2312 92.3194 30.0789 92.2727 29.8979C92.226 29.717 92.2027 29.5119 92.2027 29.2825C92.2027 29.0531 92.226 28.8473 92.2727 28.6651C92.3194 28.4829 92.39 28.3294 92.4847 28.2045C92.5793 28.0796 92.6973 27.984 92.8387 27.9178C92.98 27.8515 93.1466 27.8184 93.3384 27.8184C93.7169 27.8184 93.9996 27.9471 94.1864 28.2045C94.3731 28.4619 94.4665 28.8212 94.4665 29.2825C94.4665 29.7412 94.3731 30.0986 94.1864 30.3548C93.9996 30.6109 93.7169 30.7389 93.3384 30.7389ZM97.1746 31.2168V28.365C97.321 28.1994 97.4806 28.0681 97.6535 27.9713C97.8264 27.8745 98.0125 27.826 98.2119 27.826C98.4845 27.826 98.687 27.907 98.8195 28.0688C98.952 28.2306 99.0183 28.4581 99.0183 28.7511V31.2168H99.6921V28.7511C99.6921 28.532 99.6644 28.3319 99.6089 28.151C99.5533 27.97 99.4719 27.8152 99.3647 27.6865C99.2574 27.5578 99.1236 27.4584 98.9634 27.3883C98.8031 27.3183 98.6182 27.2832 98.4088 27.2832C98.1387 27.2832 97.9008 27.3406 97.6952 27.4552C97.4895 27.5699 97.3033 27.7203 97.1367 27.9063L97.0838 27.4858C97.0585 27.3915 96.9979 27.3444 96.902 27.3444H96.5007V31.2168H97.1746ZM102.177 31.2779C102.412 31.2779 102.619 31.2461 102.798 31.1824C102.977 31.1187 103.128 31.0314 103.252 30.9205C103.376 30.8097 103.469 30.6784 103.532 30.5268C103.595 30.3751 103.627 30.2101 103.627 30.0317C103.627 29.8763 103.598 29.7431 103.542 29.6323C103.485 29.5214 103.41 29.4278 103.316 29.3513C103.223 29.2748 103.117 29.2111 102.998 29.1602C102.88 29.1092 102.758 29.0627 102.633 29.0206C102.508 28.9786 102.386 28.9391 102.268 28.9021C102.149 28.8652 102.043 28.8225 101.95 28.7741C101.856 28.7257 101.781 28.6683 101.724 28.6021C101.668 28.5358 101.639 28.453 101.639 28.3536C101.639 28.2746 101.656 28.2013 101.69 28.1338C101.724 28.0662 101.774 28.007 101.838 27.956C101.902 27.905 101.98 27.8649 102.071 27.8356C102.162 27.8063 102.264 27.7916 102.377 27.7916C102.509 27.7916 102.622 27.8063 102.718 27.8356C102.814 27.8649 102.897 27.8968 102.966 27.9312C103.036 27.9656 103.094 27.9968 103.142 28.0248C103.19 28.0529 103.233 28.0669 103.271 28.0669C103.334 28.0669 103.381 28.0388 103.411 27.9828L103.562 27.7343C103.416 27.5941 103.243 27.4839 103.042 27.4036C102.841 27.3234 102.615 27.2832 102.362 27.2832C102.145 27.2832 101.952 27.3138 101.783 27.375C101.614 27.4361 101.471 27.5183 101.355 27.6215C101.239 27.7247 101.151 27.8445 101.09 27.9809C101.03 28.1172 100.999 28.2593 100.999 28.4071C100.999 28.5727 101.028 28.7135 101.085 28.8295C101.141 28.9455 101.217 29.0429 101.31 29.1219C101.403 29.2009 101.51 29.2666 101.63 29.3188C101.75 29.3711 101.872 29.4176 101.997 29.4583C102.122 29.4991 102.244 29.538 102.364 29.5749C102.484 29.6119 102.591 29.6552 102.684 29.7049C102.778 29.7546 102.853 29.8145 102.909 29.8846C102.966 29.9547 102.995 30.0432 102.995 30.1502C102.995 30.2369 102.979 30.3184 102.947 30.3949C102.916 30.4714 102.867 30.5389 102.802 30.5975C102.736 30.6561 102.654 30.7026 102.555 30.737C102.457 30.7714 102.342 30.7886 102.211 30.7886C102.057 30.7886 101.929 30.7708 101.827 30.7351C101.724 30.6994 101.637 30.6599 101.565 30.6166C101.494 30.5733 101.432 30.5338 101.382 30.4981C101.331 30.4624 101.283 30.4446 101.238 30.4446C101.193 30.4446 101.156 30.4535 101.128 30.4714C101.1 30.4892 101.076 30.5147 101.056 30.5478L100.897 30.8078C101.049 30.9454 101.233 31.0581 101.45 31.1461C101.667 31.234 101.909 31.2779 102.177 31.2779Z" fill="white"/>
    <path fill-rule="evenodd" clip-rule="evenodd" d="M132.391 16.1345L136.871 11.655H134.539L130.596 15.6841V7.97705H128.65V21.8537H130.596V16.6029L134.761 21.8537H137L132.391 16.1345ZM124.524 21.8537H126.45V11.6547H124.524V21.8537ZM124.524 10.0412H126.45V7.97705H124.524V10.0412ZM120.378 13.1532V11.655H118.564V21.8537H120.487V16.3415C120.487 14.3147 121.433 13.3019 123.247 13.3019H123.378V11.352C122.005 11.3724 120.951 11.9521 120.378 13.1532ZM115.083 16.7532C115.064 18.5181 113.842 20.3362 111.548 20.3362C109.493 20.3362 108.123 18.6861 108.123 16.7346C108.123 14.8027 109.529 13.1712 111.603 13.1712C113.584 13.1712 115.083 14.7487 115.083 16.7346V16.7532ZM111.899 11.352C110.603 11.3724 109.124 11.9521 108.198 13.2836V7.97705H106.271V21.8537H108.123V20.0915C108.77 21.3106 110.105 22.1557 111.825 22.1557C114.714 22.1557 117.01 19.9996 117.01 16.7169C117.01 13.3212 114.511 11.352 111.899 11.352ZM101.848 18.3097C101.35 19.4728 100.254 20.3362 98.7189 20.3362C96.2774 20.3362 95.2225 18.3097 95.2031 16.7892V16.7739C95.2031 14.86 96.571 13.1712 98.6834 13.1712C100.292 13.1712 101.424 14.0899 101.903 15.2727C102.128 15.7411 102.221 16.2665 102.202 16.7892C102.183 17.3159 102.07 17.8413 101.848 18.3097ZM102.183 13.4519C101.72 12.4775 100.443 11.352 98.4449 11.352C95.5185 11.352 93.2771 13.6396 93.2771 16.7532C93.2771 19.6035 95.2031 22.1557 98.4449 22.1557C100.034 22.1557 101.479 21.4426 102.183 20.0735V21.8537H104.106V11.655H102.183V13.4519ZM85.5222 21.8537H87.7061V15.9092H92.5922V13.98H87.7061V9.92828H92.6659V7.97705H85.5222V21.8537ZM79.2828 11.352C77.4852 11.335 76.3591 12.1774 75.8764 13.2268V11.655H74.0627V21.8537H75.9891V16.1721C75.9891 14.4096 76.8603 13.2088 78.7458 13.1906C80.7103 13.1712 81.4119 14.486 81.4119 16.3235V21.8537H83.3573V15.8715C83.3573 13.7536 82.5052 11.3907 79.2828 11.352ZM69.9906 10.0412H71.9143V7.97705H69.9906V10.0412ZM69.9906 21.8537H71.9143V11.6547H69.9906V21.8537ZM63.0306 20.3168C61.1069 20.3168 59.5887 18.7988 59.5887 16.7739V16.7532C59.5887 14.7097 61.1069 13.1906 63.0306 13.1906C64.9566 13.1906 66.4724 14.7097 66.4724 16.7532C66.4724 18.7988 64.9566 20.3168 63.0306 20.3168ZM63.0306 11.352C59.6436 11.352 57.6626 14.0163 57.6626 16.7346V16.7532C57.6626 19.4909 59.6436 22.1363 63.0306 22.1363C66.4175 22.1363 68.3987 19.4909 68.3987 16.7532C68.3987 14.0163 66.4175 11.352 63.0306 11.352ZM50.1844 9.66559C52.5931 9.68253 53.9796 11.3724 54.4235 12.2721H56.7389C56.0702 10.3579 53.8865 7.73264 50.2038 7.71436C45.9644 7.71436 43.0571 11.0887 43.0571 14.8971C43.0571 18.8364 46.0932 22.118 50.2226 22.118C53.3331 22.118 55.8648 20.1665 56.7199 17.6353H54.4235C54.1277 18.1416 52.8505 20.1665 50.2038 20.1665C47.3127 20.1665 45.2411 17.7846 45.2411 14.8971C45.2411 12.0831 47.2772 9.66559 50.1844 9.66559Z" fill="white"/>
    <path fill-rule="evenodd" clip-rule="evenodd" d="M18.2634 0C28.3508 0 36.5333 8.05898 36.5333 18C36.5333 27.941 28.3508 36 18.2634 36C8.17626 36 0 27.941 0 18C0 8.05898 8.17626 0 18.2634 0ZM18.2634 2.44199C9.54473 2.44199 2.47508 9.40715 2.47508 18C2.47508 26.5928 9.54473 33.558 18.2634 33.558C26.9855 33.558 34.0551 26.5928 34.0551 18C34.0551 9.40715 26.9855 2.44199 18.2634 2.44199ZM18.2635 7.2C24.9906 7.2 28.3836 9.52804 28.3836 9.52804L28.3832 9.62414C28.3798 10.3645 28.3584 15.2368 28.3544 19.1222L28.3538 19.8528C28.3538 19.9324 28.3537 20.0113 28.3537 20.0896V20.5513C28.3537 20.6269 28.3538 20.7017 28.3538 20.7757L28.3542 21.2097C28.3561 22.9049 28.3644 24.0872 28.3836 24.075C25.4988 28.0958 18.2635 30.1846 18.2635 30.1846L18.2456 30.1794C17.8479 30.0619 10.9479 27.9793 8.14974 24.075C8.16662 24.0867 8.17425 23.0014 8.17644 21.4189L8.17689 20.9952C8.17695 20.9229 8.17699 20.8497 8.17703 20.7757L8.17703 19.8528C8.177 19.7733 8.17696 19.6931 8.17691 19.6125L8.17652 19.1222C8.17278 15.2368 8.15319 10.3645 8.15014 9.62414L8.14974 9.52804C8.14974 9.52804 11.5424 7.2 18.2635 7.2ZM18.2635 9.71469C13.4628 9.71469 10.9511 11.3793 10.7716 11.5026L10.7613 11.5098L10.7615 11.5755C10.7616 11.5899 10.7617 11.6065 10.7617 11.6254L10.7623 11.7644C10.7658 12.6954 10.7779 16.0044 10.7808 18.7463L10.7812 19.2237C10.7813 19.3021 10.7813 19.3799 10.7813 19.4569L10.7814 20.1288C10.7813 20.2009 10.7813 20.272 10.7812 20.3421L10.7808 20.7499C10.7791 21.9334 10.7734 22.7394 10.7613 22.7309C12.8961 25.8299 18.2635 27.4405 18.2635 27.4405C18.2635 27.4405 23.6341 25.8299 25.7714 22.7309C25.7583 22.7388 25.753 21.8838 25.7513 20.6425L25.7508 20.0189C25.7508 19.9648 25.7507 19.9102 25.7507 19.8551L25.7507 19.1738C25.7507 19.1155 25.7508 19.0569 25.7508 18.9979L25.7513 18.0937C25.7514 17.971 25.7515 17.8477 25.7516 17.724C24.5608 17.2526 23.3111 16.8861 22.0134 16.6441V13.9938C23.3026 14.2053 24.5554 14.5267 25.7573 14.9427C25.7636 13.5059 25.7684 12.2933 25.7704 11.7768L25.7708 11.6625C25.7709 11.6459 25.771 11.6307 25.771 11.6167L25.7714 11.5098C25.7714 11.5098 23.2548 9.71469 18.2635 9.71469Z" fill="white"/>
  </g>
  <defs>
    <clipPath id="clip0_6180_26528">
      <rect width="137" height="36" fill="white"/>
    </clipPath>
  </defs>
</svg>