<svg xmlns="http://www.w3.org/2000/svg" width="89" height="34" viewBox="0 0 89 34" fill="none">
  <path d="M45.1196 14.5775L42.8879 19.4672H47.3513L45.1196 14.5775ZM47.9697 20.9649H42.2545L41.2592 23.1235H39.4648L44.1997 12.8448H46.0395L50.7745 23.1235H48.9799L47.9697 20.9649Z" fill="white"/>
  <path d="M56.6251 17.661C56.1224 17.2109 55.4489 16.9854 54.6044 16.9854C54.1318 16.9854 53.7601 17.0615 53.4886 17.2131C53.2172 17.3651 53.0815 17.578 53.0815 17.8519C53.0914 18.136 53.2323 18.3464 53.5037 18.4833C53.7751 18.6205 54.1721 18.7181 54.6949 18.7769C55.0267 18.8063 55.3132 18.8408 55.5544 18.8798C55.7958 18.9189 56.0721 18.9899 56.3838 19.0927C56.6953 19.1955 56.9493 19.3228 57.1454 19.4745C57.3414 19.6263 57.5073 19.8367 57.6428 20.1059C57.7786 20.3753 57.8465 20.691 57.8465 21.0531C57.8465 21.7284 57.5574 22.2791 56.9795 22.7049C56.4013 23.1308 55.6348 23.3438 54.68 23.3438C53.2323 23.3438 52.1013 22.8984 51.287 22.0074L52.1013 20.9356C52.7648 21.6307 53.6342 21.988 54.7099 22.0074C55.1322 22.0074 55.5017 21.9267 55.8184 21.7652C56.1351 21.6037 56.2933 21.3615 56.2933 21.0383C56.2933 20.7447 56.1501 20.5244 55.8636 20.3775C55.5771 20.2308 55.1474 20.1279 54.5744 20.0691C52.5536 19.9028 51.5433 19.1785 51.5433 17.896C51.5433 17.1618 51.8574 16.6136 52.4858 16.2514C53.114 15.8894 53.8301 15.708 54.6346 15.708C55.7806 15.708 56.7356 16.0263 57.4997 16.6625L56.6251 17.661Z" fill="white"/>
  <path d="M60.9526 23.1235H59.3995V15.855H60.9526V23.1235ZM59.505 14.4453C59.314 14.279 59.2185 14.0489 59.2185 13.7552C59.2185 13.4616 59.314 13.234 59.505 13.0724C59.6959 12.9109 59.9222 12.8302 60.1837 12.8302C60.4449 12.8302 60.671 12.9109 60.8622 13.0724C61.0531 13.234 61.1487 13.4616 61.1487 13.7552C61.1487 14.0489 61.0531 14.279 60.8622 14.4453C60.671 14.612 60.4449 14.695 60.1837 14.695C59.9222 14.695 59.6959 14.612 59.505 14.4453Z" fill="white"/>
  <path d="M66.6376 17.1322C65.954 17.1322 65.3733 17.3256 64.896 17.7121C64.4183 18.0989 64.1796 18.6497 64.1796 19.3642C64.1796 20.0593 64.4134 20.6026 64.8809 20.9941C65.3482 21.3857 65.9338 21.5813 66.6376 21.5813C67.3313 21.5813 67.9066 21.3735 68.3641 20.9573C68.8215 20.5414 69.0503 20.0101 69.0503 19.3642C69.0503 18.679 68.8166 18.1357 68.3492 17.7342C67.8817 17.333 67.311 17.1322 66.6376 17.1322ZM69.4574 15.2525L70.5884 16.1042L69.6987 17.1175C70.3019 17.8028 70.6034 18.5517 70.6034 19.3642C70.6034 20.7348 69.945 21.6745 68.6281 22.1833C69.9347 22.6239 70.5884 23.4118 70.5884 24.5476C70.5884 25.4775 70.1937 26.2018 69.4046 26.7206C68.6154 27.2394 67.6831 27.499 66.6074 27.499C65.391 27.499 64.4233 27.2127 63.7046 26.6401C62.9858 26.0673 62.6465 25.2818 62.6867 24.2832H64.2401C64.2198 24.8119 64.4459 25.2353 64.9186 25.5533C65.391 25.8713 65.954 26.0306 66.6074 26.0306C67.2409 26.0306 67.7936 25.9008 68.2662 25.6416C68.7385 25.3821 68.975 25.0174 68.975 24.5476C68.975 24.0483 68.7612 23.6615 68.3341 23.3875C67.9066 23.1136 67.3412 22.9764 66.6376 22.9764C65.4211 22.9764 64.4459 22.6533 63.7122 22.0072C62.9783 21.3611 62.6115 20.4801 62.6115 19.3642C62.6115 18.2188 63.0111 17.3256 63.8102 16.6842C64.6095 16.0433 65.552 15.7224 66.6376 15.7224C67.4919 15.7224 68.1606 15.8891 68.6432 16.2217L69.4574 15.2525Z" fill="white"/>
  <path d="M77.9622 23.1235V19.2469C77.9622 18.6106 77.7862 18.0992 77.4345 17.7125C77.0825 17.3259 76.5901 17.1325 75.9568 17.1325C75.3433 17.1325 74.8432 17.3478 74.4563 17.7786C74.0692 18.2094 73.8758 18.7282 73.8758 19.335V23.1235H72.3226V15.8696H73.7401L73.8305 16.927C74.5341 16.1339 75.3686 15.7375 76.3337 15.7375C77.2687 15.7375 78.0351 16.0459 78.6334 16.6626C79.2313 17.2794 79.5305 18.1361 79.5305 19.2323V23.1235H77.9622Z" fill="white"/>
  <path d="M85.0341 17.1031C84.3505 17.1031 83.7775 17.3234 83.3151 17.7639C82.8526 18.2044 82.6215 18.7821 82.6215 19.4966C82.6215 20.2212 82.8526 20.8036 83.3151 21.2441C83.7775 21.6846 84.3505 21.9049 85.0341 21.9049C85.7981 21.9049 86.3914 21.6676 86.8136 21.1927C87.2357 20.7179 87.4468 20.1526 87.4468 19.4966C87.4468 18.8506 87.2357 18.2904 86.8136 17.8154C86.3914 17.3406 85.7981 17.1031 85.0341 17.1031ZM87.4922 15.8844H88.9999V23.1235H87.5222L87.4468 21.9488C87.2257 22.3893 86.8687 22.7272 86.3762 22.962C85.8836 23.1971 85.386 23.3145 84.8834 23.3145C83.7573 23.3145 82.8401 22.9793 82.1314 22.3086C81.4227 21.6383 81.0684 20.7008 81.0684 19.4966C81.0684 18.3219 81.4326 17.3994 82.1614 16.7287C82.8903 16.0582 83.8077 15.7229 84.9136 15.7229C85.4564 15.7229 85.9563 15.8381 86.414 16.0679C86.8713 16.2981 87.2155 16.6186 87.4468 17.0298L87.4922 15.8844Z" fill="white"/>
  <path d="M0 17C0 26.3738 7.82037 34 17.4329 34C27.0455 34 34.866 26.3738 34.866 17C34.866 7.6261 27.0455 0 17.4329 0C7.82037 0 0 7.6261 0 17ZM1.11655 17C1.11655 8.22652 8.43608 1.08881 17.4329 1.08881C26.4299 1.08881 33.7494 8.22652 33.7494 17C33.7494 25.7735 26.4299 32.9112 17.4329 32.9112C8.43608 32.9112 1.11655 25.7735 1.11655 17Z" fill="url(#paint0_linear_6180_26536)"/>
  <path d="M16.4464 4.98862C15.6622 5.17998 14.9676 5.64204 14.5024 6.29694C14.4663 6.34586 14.4333 6.39489 14.4034 6.4454C14.383 6.47298 14.3657 6.50214 14.3485 6.53109L13.8692 7.34365L13.7953 7.46917L13.2358 8.41645L13.1778 8.51429L11.7368 10.9534L11.6864 11.036L11.1585 11.9313L11.1002 12.0293L10.5817 12.9076L10.5063 13.0377L8.68192 16.1258L8.6079 16.2481L8.17431 16.9826L8.12233 17.0728L7.30211 18.4592L6.90932 19.1248L6.46617 19.8763L6.40475 19.9787L5.24349 21.945L5.12099 22.1532L4.97168 22.4041L4.88367 22.5557L4.5206 23.1692C4.50486 23.1954 4.49088 23.2228 4.47666 23.2503C4.47351 23.2535 4.47199 23.2565 4.47199 23.258C4.38551 23.4295 4.3383 23.6069 4.32432 23.783C4.26464 24.5234 4.80511 25.2335 5.60656 25.3407C5.64106 25.3468 5.67568 25.3498 5.71018 25.3529C5.74643 25.3544 5.78256 25.356 5.81869 25.356H7.38546L7.43418 25.2871L7.48604 25.2136L8.45242 23.8609L8.51373 23.7752L9.37333 22.571L9.42509 22.4974L9.87768 21.864L9.93269 21.7874L10.2 21.4126C10.5424 20.932 11.1019 20.6842 11.6612 20.7086C11.6912 20.7086 11.7225 20.7103 11.7525 20.7133C11.9708 20.7331 12.1861 20.7943 12.3889 20.9015C12.4171 20.9137 12.4454 20.929 12.4721 20.9459C12.502 20.9626 12.5319 20.9811 12.5602 21.0009C13.0332 21.3221 13.2877 21.8364 13.2877 22.3583V22.3704C13.2877 22.4102 13.2862 22.4485 13.2815 22.4882C13.2595 22.77 13.1635 23.0498 12.986 23.2993L12.2789 24.2909L12.227 24.3643L11.8671 24.8662L11.7996 24.9611L11.7068 25.0913L11.5812 25.2671L11.5183 25.356H13.7812C13.8221 25.356 13.8644 25.3544 13.9052 25.3529C14.6989 25.3162 15.4312 24.9229 15.8885 24.2879L17.2006 22.4608L18.0697 21.2504L19.5153 19.2382C19.6017 19.1188 19.7039 19.0163 19.8186 18.932C19.8814 18.8862 19.9459 18.8464 20.0135 18.8112C20.0543 18.7913 20.0952 18.7729 20.1361 18.7561H20.1376C20.1643 18.7455 20.191 18.7347 20.2178 18.7255C20.2554 18.7132 20.2947 18.7025 20.334 18.6934C20.3686 18.6842 20.4048 18.678 20.4409 18.6735C20.4488 18.6703 20.4566 18.6688 20.4661 18.6688C20.4959 18.6642 20.5273 18.6596 20.5571 18.6582H20.5588C20.5965 18.655 20.6341 18.6535 20.6719 18.6535C20.9626 18.6535 21.2564 18.7423 21.5079 18.9229C21.5425 18.9474 21.5755 18.9735 21.6069 19.0009C21.6321 19.0224 21.6541 19.0423 21.676 19.0652C21.709 19.0973 21.7405 19.1326 21.7687 19.1678C21.7939 19.1983 21.8189 19.2304 21.841 19.2627C21.8912 19.3345 21.9338 19.411 21.9669 19.489C21.9778 19.5135 21.9871 19.538 21.9966 19.5625C22.006 19.5871 22.0139 19.6115 22.0218 19.636C22.0375 19.688 22.0484 19.7399 22.0579 19.792C22.0688 19.844 22.0751 19.8961 22.0768 19.9482C22.0877 20.144 22.0579 20.3415 21.9808 20.5296C21.9417 20.6275 21.8897 20.7209 21.8269 20.8112L21.7892 20.8633V20.8646L21.156 21.7477L20.3638 22.8541L20.0669 23.2687C20.004 23.3574 19.9522 23.4508 19.9144 23.5441C19.8877 23.6069 19.8673 23.6712 19.8531 23.7339C19.8453 23.766 19.8391 23.7998 19.8343 23.832C19.8202 23.9176 19.8171 24.0033 19.8217 24.0889C19.8234 24.1103 19.8249 24.1318 19.8265 24.1532C19.8327 24.216 19.8438 24.2786 19.8594 24.3415C19.8642 24.3599 19.8688 24.3767 19.8736 24.3935C19.8988 24.4776 19.9333 24.5603 19.9742 24.6382C19.9836 24.6551 19.9931 24.6719 20.0024 24.6872C20.0244 24.7255 20.0481 24.7623 20.0747 24.7974C20.0747 24.799 20.0763 24.8005 20.0763 24.8005C20.0967 24.8279 20.1187 24.8555 20.1408 24.8815C20.1533 24.8968 20.1658 24.9107 20.18 24.926C20.2021 24.9489 20.2241 24.972 20.2475 24.9933C20.2507 24.9964 20.2538 25.0009 20.2586 25.0025C20.2869 25.0285 20.3168 25.053 20.3466 25.0775C20.3497 25.079 20.3513 25.0805 20.3529 25.0821C20.3701 25.0958 20.3874 25.1081 20.4063 25.1202C20.422 25.1311 20.4377 25.1417 20.4535 25.1509C20.4833 25.1692 20.5148 25.1876 20.5463 25.203C20.5728 25.2183 20.6012 25.2304 20.6294 25.2427C20.6311 25.2443 20.6325 25.2443 20.6325 25.2443C20.6625 25.258 20.6923 25.2687 20.7237 25.2795C20.7819 25.2993 20.8432 25.3162 20.9061 25.3285C20.925 25.333 20.9452 25.3361 20.9657 25.339C21.0035 25.3453 21.0412 25.3498 21.0804 25.3514C21.1149 25.3544 21.1496 25.356 21.1858 25.356H28.9047C29.0131 25.356 29.12 25.3453 29.2205 25.3253C29.2456 25.3208 29.2708 25.3146 29.296 25.3085C29.3697 25.2902 29.4421 25.2671 29.5112 25.2381C29.5396 25.2259 29.5679 25.2136 29.5961 25.1999C29.6212 25.1891 29.6448 25.177 29.6684 25.1631C29.6715 25.1601 29.6747 25.1586 29.6778 25.157C29.7406 25.1234 29.8003 25.0836 29.8569 25.0407C29.8679 25.033 29.879 25.0239 29.8899 25.0147C29.9166 24.9933 29.9418 24.972 29.9669 24.9489C29.9952 24.923 30.0219 24.8954 30.0486 24.8662C30.0737 24.8418 30.0974 24.8158 30.1193 24.7898C30.1523 24.7469 30.1854 24.7025 30.2152 24.6583C30.2262 24.6414 30.2373 24.623 30.2482 24.6047C30.2733 24.5618 30.2985 24.5159 30.3205 24.47C30.3283 24.45 30.3379 24.4302 30.3456 24.4102C30.3676 24.3599 30.3849 24.3092 30.4007 24.2573C30.4085 24.2327 30.4148 24.2098 30.4196 24.1853C30.4257 24.1639 30.4304 24.1424 30.4336 24.1211C30.4352 24.1135 30.4368 24.1043 30.4383 24.0966L30.443 24.0736C30.4478 24.0446 30.4509 24.0139 30.4541 23.9833C30.4572 23.9526 30.4604 23.9221 30.4604 23.89C30.4698 23.6176 30.4022 23.3345 30.2419 23.0699L28.4443 20.1164L28.3735 20.0002L28.1566 19.6437L27.7874 19.0376V19.0361L27.7794 19.0238L27.7291 18.9412L26.2662 16.5388L26.1986 16.4271L26.1531 16.3521L25.2574 14.8801L25.207 14.7989L24.9792 14.4224L24.8833 14.2679L24.7718 14.0827L24.1667 13.0881L24.0269 12.8586L23.9278 12.6964L21.5 8.70553L21.4528 8.62903L20.6436 7.29778L20.5933 7.21663L20.1533 6.49284C20.0859 6.38263 20.0135 6.27708 19.9333 6.17765C19.8956 6.12862 19.8562 6.0797 19.8139 6.03384C19.8045 6.02159 19.7934 6.00933 19.7808 5.99707C19.7526 5.96484 19.7228 5.93283 19.6913 5.90219C19.4775 5.68336 19.2341 5.49665 18.9701 5.34512C18.956 5.33604 18.9402 5.32685 18.926 5.31925C18.86 5.28247 18.7924 5.24729 18.7233 5.21505C18.4656 5.09429 18.1922 5.00553 17.9078 4.95196C17.6971 4.91212 17.4819 4.89067 17.2619 4.89067C16.9838 4.89067 16.7087 4.92438 16.4464 4.98862Z" fill="url(#paint1_linear_6180_26536)"/>
  <path d="M20.7851 17.0132C20.7646 17.0392 20.7442 17.0667 20.7237 17.0942C20.2759 17.6986 20.015 18.3414 19.8972 18.6842C19.8862 18.7132 19.8768 18.7423 19.8688 18.7668C19.8343 18.8709 19.8186 18.932 19.8186 18.932C19.8814 18.8862 19.9459 18.8464 20.0135 18.8112C20.0543 18.7913 20.0952 18.7729 20.1361 18.7561H20.1376C20.1643 18.7439 20.191 18.7347 20.2178 18.7255C20.2555 18.7132 20.2947 18.7025 20.334 18.6934C20.3686 18.6842 20.4048 18.678 20.4409 18.6735C20.4488 18.6703 20.4566 18.6688 20.4661 18.6688C20.4959 18.6642 20.5273 18.6596 20.5571 18.6582H20.5589C20.5965 18.655 20.6342 18.6535 20.6719 18.6535C20.9626 18.6535 21.2565 18.7423 21.5079 18.9229C21.5425 18.9474 21.5755 18.9735 21.6069 19.0009C21.6321 19.0224 21.6541 19.0423 21.6761 19.0652C21.709 19.0973 21.7405 19.1326 21.7687 19.1678C21.7955 19.1983 21.819 19.229 21.841 19.2627C21.8912 19.3345 21.9338 19.411 21.9669 19.489C21.9778 19.5135 21.9871 19.538 21.9966 19.5625C22.006 19.5871 22.014 19.6115 22.0218 19.636C22.0375 19.688 22.0485 19.7399 22.0579 19.792C22.0673 19.844 22.0736 19.8961 22.0768 19.9482C22.0877 20.144 22.0579 20.3415 21.9809 20.5296C21.9417 20.6275 21.8897 20.7209 21.8269 20.8112L21.7892 20.8633V20.8646L21.156 21.7477L20.3639 22.8541L20.0669 23.2687C20.004 23.3574 19.9522 23.4508 19.9144 23.5441C19.8894 23.6069 19.8688 23.6712 19.8531 23.7339C19.8453 23.766 19.8391 23.7998 19.8343 23.832C19.8202 23.9176 19.8171 24.0033 19.8218 24.0889C19.8234 24.1103 19.8249 24.1318 19.8265 24.1532C19.8327 24.216 19.8438 24.2786 19.8594 24.3415C19.8642 24.3599 19.8688 24.3767 19.8736 24.3935C19.8988 24.4776 19.9333 24.5603 19.9742 24.6382C19.9836 24.6535 19.9915 24.6688 19.9993 24.6843L20.0024 24.6872C20.0244 24.7255 20.0481 24.7623 20.0747 24.7974C20.0747 24.799 20.0763 24.8005 20.0763 24.8005C20.0967 24.8279 20.1187 24.8555 20.1408 24.8815C20.1534 24.8968 20.1658 24.9107 20.18 24.926C20.2021 24.9489 20.2241 24.972 20.2475 24.9933C20.2507 24.9964 20.2538 25.0009 20.2586 25.0025C20.2869 25.0285 20.3168 25.053 20.3466 25.0775C20.3498 25.079 20.3513 25.0805 20.3529 25.0821C20.3702 25.0958 20.3874 25.1081 20.4063 25.1202C20.422 25.1311 20.4378 25.1417 20.4535 25.1509C20.4833 25.1692 20.5148 25.1876 20.5463 25.203C20.5728 25.2183 20.6012 25.2304 20.6294 25.2427C20.6311 25.2443 20.6325 25.2443 20.6325 25.2443C20.6625 25.258 20.6923 25.2687 20.7237 25.2795C20.7819 25.2993 20.8433 25.3162 20.9061 25.3285C20.925 25.333 20.9452 25.3361 20.9658 25.339C21.0035 25.3453 21.0412 25.3498 21.0804 25.3514C21.1149 25.3544 21.1496 25.356 21.1858 25.356H28.9047C29.0131 25.356 29.12 25.3453 29.2206 25.3253C29.2456 25.3208 29.2708 25.3146 29.296 25.3085C29.3698 25.2902 29.4421 25.2671 29.5113 25.2381C29.5396 25.2259 29.5679 25.2136 29.5961 25.1999C29.6212 25.1891 29.6448 25.177 29.6684 25.1631L29.6778 25.1586V25.157C29.7406 25.1234 29.8003 25.0836 29.857 25.0407C29.8679 25.033 29.879 25.0239 29.8899 25.0147C29.9166 24.9933 29.9418 24.972 29.9669 24.9489C29.9952 24.923 30.0219 24.8954 30.0486 24.8662C30.0738 24.8418 30.0974 24.8158 30.1193 24.7898C30.1523 24.7469 30.1854 24.7025 30.2153 24.6583C30.2262 24.6414 30.2373 24.623 30.2482 24.6047C30.2733 24.5618 30.2985 24.5159 30.3205 24.47C30.3283 24.45 30.3379 24.4302 30.3456 24.4102C30.3676 24.3599 30.385 24.3092 30.4007 24.2573C30.4085 24.2327 30.4148 24.2098 30.4196 24.1853C30.4258 24.1639 30.4304 24.1424 30.4336 24.1211C30.4368 24.1057 30.4399 24.0904 30.4416 24.0751L30.443 24.0736C30.4478 24.0446 30.4509 24.0139 30.4541 23.9833C30.4572 23.9526 30.4604 23.9221 30.4604 23.89C30.4698 23.6176 30.4022 23.3345 30.2419 23.0699L28.4443 20.1164L28.3735 20.0002L28.1566 19.6437L27.7874 19.0376V19.0361L27.7795 19.0238L27.7291 18.9412L26.2662 16.5388C26.2254 16.5143 26.1845 16.4883 26.1436 16.4639C26.1154 16.447 26.087 16.4316 26.0572 16.4148C25.4114 16.0461 24.5847 15.7293 23.6089 15.6772C23.5775 15.6742 23.5461 15.6727 23.5146 15.6727C23.4487 15.6696 23.3826 15.668 23.315 15.668C22.1537 15.668 21.3365 16.3031 20.7851 17.0132Z" fill="url(#paint2_linear_6180_26536)"/>
  <path d="M13.2883 22.3587C13.2883 22.6843 13.1905 23.0121 12.9859 23.3001L11.5187 25.3555H7.38599L10.1996 21.413C10.734 20.6644 11.7917 20.4805 12.5604 21.001C13.0335 21.3222 13.2883 21.8362 13.2883 22.3587Z" fill="white"/>
  <path d="M12.0221 22.545C12.0221 22.8857 11.7384 23.1621 11.3885 23.1621C11.0386 23.1621 10.7549 22.8857 10.7549 22.545C10.7549 22.2043 11.0386 21.9279 11.3885 21.9279C11.7384 21.9279 12.0221 22.2043 12.0221 22.545Z" fill="black"/>
  <defs>
    <linearGradient id="paint0_linear_6180_26536" x1="13.957" y1="32.9469" x2="20.3887" y2="1.91728" gradientUnits="userSpaceOnUse">
      <stop stop-color="#842C00"/>
      <stop offset="0.136672" stop-color="#842C00"/>
      <stop offset="0.5538" stop-color="#FC5A00"/>
      <stop offset="0.988604" stop-color="#F7941D"/>
      <stop offset="1" stop-color="#F7941D"/>
    </linearGradient>
    <linearGradient id="paint1_linear_6180_26536" x1="16.5735" y1="27.6146" x2="21.1265" y2="5.61757" gradientUnits="userSpaceOnUse">
      <stop stop-color="#842C00"/>
      <stop offset="0.136672" stop-color="#842C00"/>
      <stop offset="0.5538" stop-color="#FC5A00"/>
      <stop offset="0.988604" stop-color="#F7941D"/>
      <stop offset="1" stop-color="#F7941D"/>
    </linearGradient>
    <linearGradient id="paint2_linear_6180_26536" x1="22.1786" y1="26.1659" x2="27.4372" y2="17.2246" gradientUnits="userSpaceOnUse">
      <stop stop-color="#842C00"/>
      <stop offset="0.136672" stop-color="#842C00"/>
      <stop offset="0.5538" stop-color="#FC5A00"/>
      <stop offset="0.988604" stop-color="#F7941D"/>
      <stop offset="1" stop-color="#F7941D"/>
    </linearGradient>
  </defs>
</svg>