<svg width="20" height="20" viewBox="0 0 20 20" fill="none" xmlns="http://www.w3.org/2000/svg">
<path d="M18.1817 11.7161H16.0545V9.04556H18.1817C18.6726 9.04556 18.9999 8.73138 18.9999 8.26012C18.9999 7.78886 18.6726 7.47468 18.1817 7.47468H16.0545V6.84633C16.0545 5.58962 14.9909 4.6471 13.7636 4.6471H13.1091V2.52641C13.1091 2.05514 12.7818 1.74097 12.2909 1.74097C11.8 1.74097 11.4728 2.05514 11.4728 2.52641V4.56855H8.6092V2.52641C8.6092 2.05514 8.28193 1.74097 7.79103 1.74097C7.30013 1.74097 6.97286 2.05514 6.97286 2.52641V4.56855H6.31833C5.00926 4.56855 4.02746 5.58962 4.02746 6.76778V7.39613H1.81841C1.32751 7.39613 1.00024 7.71031 1.00024 8.18157C1.00024 8.65284 1.32751 8.96701 1.81841 8.96701H3.94564V11.7161H1.81841C1.32751 11.7161 1.00024 12.0302 1.00024 12.5015C1.00024 12.9728 1.32751 13.2869 1.81841 13.2869H3.94564V13.9153C3.94564 15.172 5.00926 16.1145 6.23651 16.1145H6.89105V18.2352C6.89105 18.7065 7.21831 19.0206 7.70921 19.0206C8.20011 19.0206 8.52738 18.7065 8.52738 18.2352V16.1931H11.391V18.2352C11.391 18.7065 11.7182 19.0206 12.2091 19.0206C12.7 19.0206 13.0273 18.7065 13.0273 18.2352V16.1931H13.6818C14.9909 16.1931 15.9727 15.172 15.9727 13.9938V13.3655H18.1817C18.6726 13.3655 18.9999 13.0513 18.9999 12.58C18.9999 12.1088 18.6726 11.7161 18.1817 11.7161ZM14.4182 13.9153C14.4182 14.308 14.0909 14.5436 13.7636 14.5436H6.31833C5.90925 14.5436 5.66379 14.2295 5.66379 13.9153V6.84633C5.58198 6.45361 5.90925 6.13943 6.31833 6.13943H13.7636C14.1727 6.13943 14.4182 6.76778 14.4182 6.76778V13.9153Z" fill="#FAFAFA"/>
</svg>
