<svg xmlns="http://www.w3.org/2000/svg" width="17" height="16" viewBox="0 0 17 16" fill="none">
  <path fill-rule="evenodd" clip-rule="evenodd" d="M13.1667 12V8C13.1667 7.632 13.4647 7.33333 13.8333 7.33333C14.202 7.33333 14.5 7.632 14.5 8V12C14.5 13.1027 13.6027 14 12.5 14H4.5C3.39733 14 2.5 13.1027 2.5 12V4C2.5 2.89733 3.39733 2 4.5 2H8.5C8.86867 2 9.16667 2.29867 9.16667 2.66667C9.16667 3.03467 8.86867 3.33333 8.5 3.33333H4.5C4.132 3.33333 3.83333 3.63267 3.83333 4V12C3.83333 12.3673 4.132 12.6667 4.5 12.6667H12.5C12.868 12.6667 13.1667 12.3673 13.1667 12ZM12.2187 3.33867L11.1634 3.33333C10.7947 3.33133 10.4981 3.03133 10.5001 2.66333C10.5021 2.296 10.8001 2 11.1667 2H11.1701L13.8347 2.01333C14.2014 2.01533 14.4981 2.31267 14.4981 2.67933L14.5001 5.33267C14.5001 5.70133 14.2021 6 13.8341 6H13.8334C13.4654 6 13.1667 5.702 13.1667 5.334L13.1661 4.27667L8.9714 8.47133C8.8414 8.60133 8.67073 8.66667 8.50007 8.66667C8.3294 8.66667 8.15873 8.60133 8.02873 8.47133C7.76807 8.21067 7.76807 7.78933 8.02873 7.52867L12.2187 3.33867Z" fill="white"/>
</svg>